<?xml version="1.0" standalone="no"?><svg xmlns="http://www.w3.org/2000/svg" viewBox="0 0 1440 320"><path fill="#00ffef" fill-opacity="1" d="M0,160L26.7,160C53.3,160,107,160,160,176C213.3,192,267,224,320,202.7C373.3,181,427,107,480,96C533.3,85,587,139,640,144C693.3,149,747,107,800,122.7C853.3,139,907,213,960,234.7C1013.3,256,1067,224,1120,186.7C1173.3,149,1227,107,1280,112C1333.3,117,1387,171,1413,197.3L1440,224L1440,320L1413.3,320C1386.7,320,1333,320,1280,320C1226.7,320,1173,320,1120,320C1066.7,320,1013,320,960,320C906.7,320,853,320,800,320C746.7,320,693,320,640,320C586.7,320,533,320,480,320C426.7,320,373,320,320,320C266.7,320,213,320,160,320C106.7,320,53,320,27,320L0,320Z"></path></svg>