<?xml version="1.0" standalone="no"?><svg xmlns="http://www.w3.org/2000/svg" viewBox="0 0 1440 320"><path fill="#00ffff" fill-opacity="1" d="M0,32L24,58.7C48,85,96,139,144,149.3C192,160,240,128,288,112C336,96,384,96,432,101.3C480,107,528,117,576,112C624,107,672,85,720,74.7C768,64,816,64,864,85.3C912,107,960,149,1008,154.7C1056,160,1104,128,1152,101.3C1200,75,1248,53,1296,69.3C1344,85,1392,139,1416,165.3L1440,192L1440,0L1416,0C1392,0,1344,0,1296,0C1248,0,1200,0,1152,0C1104,0,1056,0,1008,0C960,0,912,0,864,0C816,0,768,0,720,0C672,0,624,0,576,0C528,0,480,0,432,0C384,0,336,0,288,0C240,0,192,0,144,0C96,0,48,0,24,0L0,0Z"></path></svg>