<?xml version="1.0" encoding="UTF-8" standalone="no"?>
<svg
   xmlns:dc="http://purl.org/dc/elements/1.1/"
   xmlns:cc="http://creativecommons.org/ns#"
   xmlns:rdf="http://www.w3.org/1999/02/22-rdf-syntax-ns#"
   xmlns:svg="http://www.w3.org/2000/svg"
   xmlns="http://www.w3.org/2000/svg"
   xmlns:sodipodi="http://sodipodi.sourceforge.net/DTD/sodipodi-0.dtd"
   xmlns:inkscape="http://www.inkscape.org/namespaces/inkscape"
   width="24"
   height="24"
   viewBox="0 0 24 24"
   version="1.1"
   id="svg68"
   sodipodi:docname="whatsapp.svg"
   inkscape:version="1.0.2 (e86c870879, 2021-01-15)">
  <metadata
     id="metadata74">
    <rdf:RDF>
      <cc:Work
         rdf:about="">
        <dc:format>image/svg+xml</dc:format>
        <dc:type
           rdf:resource="http://purl.org/dc/dcmitype/StillImage" />
        <dc:title></dc:title>
      </cc:Work>
    </rdf:RDF>
  </metadata>
  <defs
     id="defs72" />
  <sodipodi:namedview
     pagecolor="#ffffff"
     bordercolor="#666666"
     borderopacity="1"
     objecttolerance="10"
     gridtolerance="10"
     guidetolerance="10"
     inkscape:pageopacity="0"
     inkscape:pageshadow="2"
     inkscape:window-width="1366"
     inkscape:window-height="704"
     id="namedview70"
     showgrid="false"
     inkscape:showpageshadow="false"
     showborder="false"
     inkscape:zoom="21.375"
     inkscape:cx="12"
     inkscape:cy="12"
     inkscape:window-x="0"
     inkscape:window-y="27"
     inkscape:window-maximized="1"
     inkscape:current-layer="svg68" />
  <path
     d="M 0.057,24 1.744,17.837 C 0.703,16.033 0.156,13.988 0.157,11.891 0.16,5.335 5.495,0 12.05,0 c 3.181,0.001 6.167,1.24 8.413,3.488 2.245,2.248 3.481,5.236 3.48,8.414 -0.003,6.557 -5.338,11.892 -11.893,11.892 -1.99,-0.001 -3.951,-0.5 -5.688,-1.448 z m 6.597,-3.807 c 1.676,0.995 3.276,1.591 5.392,1.592 5.448,0 9.886,-4.434 9.889,-9.885 0.002,-5.462 -4.415,-9.89 -9.881,-9.892 -5.452,0 -9.887,4.434 -9.889,9.884 -10e-4,2.225 0.651,3.891 1.746,5.634 l -0.999,3.648 z m 11.387,-5.464 c -0.074,-0.124 -0.272,-0.198 -0.57,-0.347 -0.297,-0.149 -1.758,-0.868 -2.031,-0.967 -0.272,-0.099 -0.47,-0.149 -0.669,0.149 -0.198,0.297 -0.768,0.967 -0.941,1.165 -0.173,0.198 -0.347,0.223 -0.644,0.074 -0.297,-0.149 -1.255,-0.462 -2.39,-1.475 C 9.913,12.54 9.316,11.567 9.143,11.269 8.97,10.972 9.125,10.811 9.273,10.663 9.407,10.53 9.57,10.316 9.719,10.142 9.87,9.97 9.919,9.846 10.019,9.647 10.118,9.449 10.069,9.275 9.994,9.126 9.919,8.978 9.325,7.515 9.078,6.92 8.836,6.341 8.591,6.419 8.409,6.41 L 7.839,6.4 c -0.198,0 -0.52,0.074 -0.792,0.372 -0.272,0.298 -1.04,1.016 -1.04,2.479 0,1.463 1.065,2.876 1.213,3.074 0.149,0.198 2.095,3.2 5.076,4.487 0.709,0.306 1.263,0.489 1.694,0.626 0.712,0.226 1.36,0.194 1.872,0.118 0.571,-0.085 1.758,-0.719 2.006,-1.413 0.248,-0.695 0.248,-1.29 0.173,-1.414 z"
     id="path66"
     style="fill:#00ff00" />
</svg>
